<svg width="27" height="27" viewBox="0 0 27 27" fill="none" xmlns="http://www.w3.org/2000/svg">
<path d="M23.6326 9.24939C23.6366 8.46891 23.4231 7.70275 23.0163 7.0367C22.6093 6.37066 22.0251 5.83104 21.3289 5.47827C20.6326 5.1255 19.8519 4.97352 19.0743 5.03934C18.2965 5.10517 17.5526 5.3862 16.9255 5.85096C16.2985 6.31572 15.8132 6.94585 15.5241 7.67081C15.2349 8.39576 15.1532 9.1869 15.2883 9.95562C15.4234 10.7243 15.7697 11.4403 16.2886 12.0233C16.8075 12.6063 17.4786 13.0333 18.2264 13.2565C17.9503 13.8177 17.5231 14.2909 16.9928 14.6226C16.4626 14.9545 15.8504 15.1318 15.2248 15.1348H11.8617C10.6167 15.1392 9.41787 15.6068 8.49862 16.4465V8.32285C9.51936 8.11449 10.4264 7.53455 11.0438 6.69545C11.6613 5.85635 11.9451 4.81788 11.8404 3.78137C11.7357 2.74485 11.2499 1.78414 10.4771 1.08548C9.7043 0.386826 8.69963 0 7.65784 0C6.61604 0 5.61137 0.386826 4.83857 1.08548C4.06578 1.78414 3.57994 2.74485 3.47523 3.78137C3.37052 4.81788 3.65441 5.85635 4.27185 6.69545C4.8893 7.53455 5.79632 8.11449 6.81706 8.32285V18.5803C5.79824 18.7752 4.88592 19.3362 4.25221 20.1573C3.6185 20.9786 3.3072 22.0033 3.37701 23.0383C3.44682 24.0732 3.89293 25.0468 4.63119 25.7754C5.36945 26.5041 6.34883 26.9375 7.38459 26.9937C8.42037 27.05 9.44092 26.7253 10.2538 26.0809C11.0666 25.4365 11.6156 24.5169 11.797 23.4957C11.9785 22.4743 11.7801 21.422 11.2391 20.5369C10.698 19.6518 9.85188 18.9954 8.86015 18.6913C9.13677 18.1307 9.56416 17.6583 10.0944 17.3271C10.6246 16.9959 11.2366 16.8191 11.8617 16.8164H15.2248C16.2741 16.8116 17.2957 16.4796 18.1475 15.8669C18.9993 15.2541 19.6387 14.391 19.9769 13.3978C20.9849 13.2653 21.9106 12.7719 22.5828 12.0092C23.255 11.2464 23.6279 10.266 23.6326 9.24939ZM5.1355 4.20471C5.1355 3.70584 5.28343 3.21818 5.56059 2.80338C5.83775 2.38859 6.23169 2.06529 6.69258 1.87438C7.15348 1.68348 7.66064 1.63352 8.14992 1.73085C8.63921 1.82817 9.08864 2.0684 9.4414 2.42115C9.79416 2.77391 10.0344 3.22335 10.1317 3.71263C10.229 4.20192 10.1791 4.70908 9.98817 5.16997C9.79726 5.63087 9.47396 6.02481 9.05917 6.30196C8.64437 6.57912 8.15671 6.72705 7.65784 6.72705C6.98887 6.72705 6.34731 6.46131 5.87428 5.98828C5.40124 5.51525 5.1355 4.87368 5.1355 4.20471ZM10.1802 22.7018C10.1802 23.2007 10.0322 23.6884 9.75509 24.1031C9.47792 24.5179 9.08399 24.8412 8.6231 25.0321C8.16219 25.2231 7.65503 25.2731 7.16576 25.1758C6.67647 25.0784 6.22703 24.8382 5.87428 24.4854C5.52152 24.1326 5.28129 23.6832 5.18396 23.194C5.08665 22.7046 5.13659 22.1975 5.3275 21.7366C5.51841 21.2757 5.84171 20.8817 6.25651 20.6046C6.6713 20.3275 7.15896 20.1795 7.65784 20.1795C8.32681 20.1795 8.96836 20.4453 9.4414 20.9183C9.91443 21.3914 10.1802 22.0329 10.1802 22.7018ZM19.4287 11.7717C18.9299 11.7717 18.4422 11.6237 18.0274 11.3466C17.6127 11.0695 17.2894 10.6755 17.0984 10.2146C16.9075 9.75375 16.8575 9.2466 16.9548 8.75731C17.0521 8.26802 17.2924 7.81858 17.6452 7.46583C17.998 7.11307 18.4474 6.87284 18.9366 6.77551C19.4259 6.6782 19.9331 6.72815 20.394 6.91905C20.8549 7.10996 21.2489 7.43326 21.526 7.84805C21.8031 8.26285 21.9511 8.75051 21.9511 9.24939C21.9511 9.91835 21.6853 10.5599 21.2123 11.0329C20.7392 11.5059 20.0977 11.7717 19.4287 11.7717Z" fill="#C5C5C5"/>
</svg>
