<svg width="28" height="28" viewBox="0 0 28 28" fill="none" xmlns="http://www.w3.org/2000/svg">
<g clip-path="url(#clip0_10_57)">
<path d="M20.02 0H7.98C3.59335 0 0 3.59335 0 7.98V20.02C0 24.4066 3.59335 28 7.98 28H20.02C24.4066 28 28 24.4066 28 20.02V7.98C28 3.59335 24.4066 0 20.02 0ZM27.0666 20.02C27.0666 23.8934 23.8933 27.0666 20.02 27.0666H7.98C4.10665 27.0666 0.933352 23.8933 0.933352 20.02V7.98C0.933352 4.10665 4.1067 0.933352 7.98 0.933352H20.02C23.8934 0.933352 27.0666 4.1067 27.0666 7.98V20.02Z" fill="#C5C5C5" stroke="#C5C5C5" stroke-width="0.125"/>
<path d="M20.02 2.80005H7.97999C5.13334 2.80005 2.79999 5.1334 2.79999 7.98005V20.02C2.79999 22.8667 5.13334 25.2 7.97999 25.2H20.02C22.8666 25.2 25.2 22.8667 25.2 20.02V7.98005C25.2 5.1334 22.8666 2.80005 20.02 2.80005ZM24.2666 20.02C24.2666 22.3534 22.3533 24.2667 20.02 24.2667H7.97999C5.64664 24.2667 3.73334 22.3533 3.73334 20.02V7.98005C3.73334 5.6467 5.64669 3.7334 7.97999 3.7334H20.02C22.3533 3.7334 24.2666 5.64675 24.2666 7.98005V20.02Z" fill="#C5C5C5" stroke="#C5C5C5" stroke-width="0.125"/>
<path d="M14 6.53333C9.89332 6.53333 6.53333 9.89332 6.53333 14C6.53333 18.1066 9.89332 21.4666 14 21.4666C18.1066 21.4666 21.4666 18.1066 21.4666 14C21.4666 9.89332 18.1066 6.53333 14 6.53333ZM14 20.5333C10.4066 20.5333 7.46662 17.5933 7.46662 14C7.46662 10.4066 10.4066 7.46662 14 7.46662C17.5933 7.46662 20.5333 10.4066 20.5333 14C20.5333 17.5933 17.5933 20.5333 14 20.5333Z" fill="#C5C5C5" stroke="#C5C5C5" stroke-width="0.125"/>
<path d="M14 8.8667C11.1533 8.8667 8.86664 11.1533 8.86664 14.0001C8.86664 16.8467 11.1533 19.1334 14 19.1334C16.8467 19.1334 19.1333 16.8468 19.1333 14.0001C19.1333 11.1533 16.8466 8.8667 14 8.8667ZM14 18.2001C11.6666 18.2001 9.79999 16.3334 9.79999 14.0001C9.79999 11.6667 11.6666 9.80005 14 9.80005C16.3333 9.80005 18.2 11.6667 18.2 14.0001C18.2 16.3334 16.3333 18.2001 14 18.2001Z" fill="#C5C5C5" stroke="#C5C5C5" stroke-width="0.125"/>
<path d="M21.4666 5.1333C20.6733 5.1333 20.0667 5.73995 20.0667 6.5333C20.0667 7.32665 20.6733 7.9333 21.4666 7.9333C22.26 7.9333 22.8666 7.32665 22.8666 6.5333C22.8666 5.73995 22.26 5.1333 21.4666 5.1333Z" fill="#C5C5C5" stroke="#C5C5C5" stroke-width="0.125"/>
</g>
<defs>
<clipPath id="clip0_10_57">
<rect width="28" height="28" fill="white"/>
</clipPath>
</defs>
</svg>
