<svg width="29" height="26" viewBox="0 0 29 26" fill="none" xmlns="http://www.w3.org/2000/svg">
<path d="M27.8453 3.70176C27.7079 3.55179 27.4787 3.50179 27.2954 3.55179L26.3788 3.90179C26.9288 3.20186 27.2954 2.45192 27.5245 1.75198C27.6162 1.502 27.5703 1.30203 27.4328 1.15201C27.2954 1.00204 27.0662 0.952037 26.8829 1.05199C25.5997 1.65197 24.4998 2.15193 23.5833 2.45186C23.5833 2.50187 23.5374 2.45186 23.4916 2.45186C22.7583 2.00191 20.971 1.00199 19.6879 1.00199C16.434 1.05199 13.8219 4.05175 13.8219 7.70144V7.90141C9.05575 6.90149 6.44357 5.40161 3.6022 2.15187L3.14402 1.65191L2.86904 2.25189C1.31089 5.50163 2.41076 8.45138 4.19805 10.4512C3.37316 10.3013 2.8232 10.0013 2.31908 9.55131C2.13578 9.40135 1.90664 9.35134 1.6775 9.5013C1.4942 9.60132 1.40252 9.90125 1.44836 10.1512C2.08994 12.501 3.69393 14.4009 5.43538 15.5508C4.61049 15.5508 3.92307 15.4508 3.23565 14.9508C3.05235 14.8508 2.77737 14.8508 2.59406 15.0008C2.41076 15.1508 2.31908 15.4007 2.41076 15.6507C3.23565 18.2005 4.83964 19.5504 7.40603 19.9004C6.07702 20.7503 4.33557 21.4503 1.63171 21.5003C1.35673 21.5003 1.12759 21.7003 1.03597 21.9502C0.944289 22.2502 1.03597 22.5002 1.21927 22.7002C2.8691 24.15 6.5353 25 11.0723 25C19.138 25 25.7373 17.1507 25.7373 7.50146V7.3515C26.7455 6.80153 27.5704 5.7516 27.9828 4.30173C28.0286 4.1017 27.9828 3.85172 27.8453 3.70176ZM25.0956 6.55149L24.8206 6.65151V7.50146C24.8206 16.6007 18.6338 24.0001 11.0722 24.0001C6.90185 24.0001 4.10637 23.2501 2.59406 22.4502C5.7562 22.2002 7.58933 21.1003 9.01001 19.9004L10.1557 19.0005H8.78087C6.1687 19.0005 4.56471 18.2005 3.64814 16.3007C4.47303 16.6007 5.34376 16.6007 6.30616 16.5507C6.67276 16.5007 7.03942 16.5007 7.40603 16.5007L7.54349 15.5008C5.80204 14.9508 3.73977 13.2509 2.73153 10.9512C3.64809 11.4011 4.65628 11.5011 5.57285 11.5011H6.99353L5.84788 10.6012C4.88547 9.85124 2.04416 7.20148 3.419 3.40177C6.352 6.55149 9.14753 8.00137 14.1886 9.00129L14.7385 9.1013V7.70144C14.7385 4.60172 16.9383 2.05191 19.688 2.00191C20.742 1.9519 22.4835 3.00183 22.9876 3.30181C23.2626 3.45178 23.5375 3.50179 23.8125 3.40183C24.4999 3.15185 25.3248 2.80185 26.2413 2.40191C25.8289 3.15185 25.2789 3.85178 24.5457 4.50176C24.3624 4.65173 24.3166 4.95171 24.4083 5.20169C24.4999 5.45167 24.7749 5.55169 25.004 5.45167L26.7913 4.80175C26.4705 5.45162 25.9664 6.20156 25.0956 6.55149Z" fill="#C5C5C5" stroke="#C5C5C5" stroke-width="0.125178"/>
</svg>
